<svg height="512pt" viewBox="0 0 512 512" width="512pt" xmlns="http://www.w3.org/2000/svg"><path d="m512 185.808594c0 8.28125-6.71875 15-15 15h-4.808594v296.191406h-221.140625v-326.191406h225.949219c8.28125 0 15 6.710937 15 15zm0 0" fill="#ee5454"/><path d="m512 185.808594c0 8.28125-6.71875 15-15 15h-225.949219v-30h225.949219c8.28125 0 15 6.710937 15 15zm0 0" fill="#ff9c20"/><path d="m301.050781 15v482h-280l.199219-482zm0 0" fill="#1b6aa6"/><path d="m160.78125 15h140.269531v482h-140.269531zm0 0" fill="#173755"/><path d="m176.050781 75.789062v25.230469c0 8.28125-6.722656 15-15 15-.089843 0-.179687 0-.269531-.007812-8.171875-.140625-14.730469-6.800781-14.730469-14.992188v-25.230469c0-8.199218 6.558594-14.847656 14.730469-14.988281.089844-.011719.179688-.011719.269531-.011719 8.277344 0 15 6.710938 15 15zm0 0" fill="#fff"/><path d="m99.046875 60.789062c-8.285156 0-15 6.714844-15 15v25.230469c0 8.285157 6.714844 15 15 15 8.28125 0 15-6.714843 15-15v-25.230469c0-8.285156-6.71875-15-15-15zm0 0" fill="#fff"/><path d="m223.046875 60.789062c-8.285156 0-15 6.714844-15 15v25.230469c0 8.285157 6.714844 15 15 15 8.28125 0 15-6.714843 15-15v-25.230469c0-8.285156-6.71875-15-15-15zm0 0" fill="#d9eeff"/><path d="m175.910156 161.269531v25.230469c0 8.28125-6.710937 15-15 15h-.128906c-8.222656-.070312-14.871094-6.761719-14.871094-15v-25.230469c0-8.25 6.648438-14.929687 14.871094-15h.128906c8.289063 0 15 6.710938 15 15zm0 0" fill="#fff"/><path d="m98.914062 146.265625c-8.285156 0-15 6.714844-15 15v25.234375c0 8.28125 6.714844 15 15 15 8.28125 0 15-6.71875 15-15v-25.234375c0-8.285156-6.71875-15-15-15zm0 0" fill="#fff"/><path d="m222.914062 146.265625c-8.285156 0-15 6.714844-15 15v25.234375c0 8.28125 6.714844 15 15 15 8.28125 0 15-6.71875 15-15v-25.234375c0-8.285156-6.71875-15-15-15zm0 0" fill="#d9eeff"/><path d="m175.910156 246.140625v25.230469c0 8.289062-6.710937 15-15 15h-.128906c-8.222656-.070313-14.871094-6.75-14.871094-15v-25.230469c0-8.242187 6.648438-14.929687 14.871094-15h.128906c8.289063 0 15 6.71875 15 15zm0 0" fill="#fff"/><path d="m98.914062 231.140625c-8.285156 0-15 6.714844-15 15v25.230469c0 8.285156 6.714844 15 15 15 8.28125 0 15-6.714844 15-15v-25.230469c0-8.285156-6.71875-15-15-15zm0 0" fill="#fff"/><path d="m222.914062 231.140625c-8.285156 0-15 6.714844-15 15v25.230469c0 8.285156 6.714844 15 15 15 8.28125 0 15-6.714844 15-15v-25.230469c0-8.285156-6.71875-15-15-15zm0 0" fill="#d9eeff"/><path d="m175.78125 331.621094v25.230468c0 8.277344-6.710938 15-15 15-8.28125 0-15-6.722656-15-15v-25.230468c0-8.292969 6.71875-15 15-15 8.289062 0 15 6.707031 15 15zm0 0" fill="#fff"/><path d="m98.78125 371.851562c8.285156 0 15-6.71875 15-15v-25.234374c0-8.285157-6.714844-15-15-15s-15 6.714843-15 15v25.234374c0 8.28125 6.714844 15 15 15zm0 0" fill="#fff"/><path d="m222.78125 371.851562c8.285156 0 15-6.71875 15-15v-25.234374c0-8.285157-6.714844-15-15-15s-15 6.714843-15 15v25.234374c0 8.28125 6.714844 15 15 15zm0 0" fill="#d9eeff"/><path d="m175.78125 416.410156v74.269532c0 8.28125-6.710938 15-15 15-8.28125 0-15-6.71875-15-15v-74.269532c0-8.289062 6.71875-15 15-15 8.289062 0 15 6.710938 15 15zm0 0" fill="#fff49c"/><path d="m98.78125 401.410156c-8.285156 0-15 6.714844-15 15v74.269532c0 8.285156 6.714844 15 15 15s15-6.714844 15-15v-74.269532c0-8.285156-6.714844-15-15-15zm0 0" fill="#fff49c"/><path d="m222.78125 401.410156c-8.285156 0-15 6.714844-15 15v74.269532c0 8.285156 6.714844 15 15 15s15-6.714844 15-15v-74.269532c0-8.285156-6.714844-15-15-15zm0 0" fill="#fee276"/><g fill="#d9eeff"><path d="m160.78125 316.621094v55.230468c8.289062 0 15-6.722656 15-15v-25.230468c0-8.292969-6.710938-15-15-15zm0 0"/><path d="m160.910156 146.269531h-.128906v55.230469h.128906c8.289063 0 15-6.71875 15-15v-25.230469c0-8.289062-6.710937-15-15-15zm0 0"/><path d="m160.910156 231.140625h-.128906v55.230469h.128906c8.289063 0 15-6.710938 15-15v-25.230469c0-8.28125-6.710937-15-15-15zm0 0"/><path d="m161.050781 60.789062c-.089843 0-.179687 0-.269531.011719v55.210938c.089844.007812.179688.007812.269531.007812 8.277344 0 15-6.71875 15-15v-25.230469c0-8.289062-6.722656-15-15-15zm0 0"/></g><path d="m175.78125 416.410156v74.269532c0 8.28125-6.710938 15-15 15v-104.269532c8.289062 0 15 6.710938 15 15zm0 0" fill="#fee276"/><path d="m412.683594 231.140625c-8.285156 0-15 6.714844-15 15v25.230469c0 8.285156 6.714844 15 15 15s15-6.714844 15-15v-25.230469c0-8.285156-6.714844-15-15-15zm0 0" fill="#d9eeff"/><path d="m350.683594 231.140625c-8.285156 0-15 6.714844-15 15v25.230469c0 8.285156 6.714844 15 15 15s15-6.714844 15-15v-25.230469c0-8.285156-6.714844-15-15-15zm0 0" fill="#d9eeff"/><path d="m412.550781 371.851562c8.285157 0 15-6.71875 15-15v-25.234374c0-8.285157-6.714843-15-15-15-8.285156 0-15 6.714843-15 15v25.234374c0 8.28125 6.714844 15 15 15zm0 0" fill="#d9eeff"/><path d="m350.550781 371.851562c8.285157 0 15-6.71875 15-15v-25.234374c0-8.285157-6.714843-15-15-15-8.285156 0-15 6.714843-15 15v25.234374c0 8.28125 6.714844 15 15 15zm0 0" fill="#d9eeff"/><path d="m412.617188 401.410156c-8.28125 0-15 6.714844-15 15v73.089844c0 8.285156 6.71875 15 15 15 8.285156 0 15-6.714844 15-15v-73.089844c0-8.285156-6.714844-15-15-15zm0 0" fill="#fee276"/><path d="m350.617188 401.410156c-8.28125 0-15 6.714844-15 15v73.089844c0 8.285156 6.71875 15 15 15 8.285156 0 15-6.714844 15-15v-73.089844c0-8.285156-6.714844-15-15-15zm0 0" fill="#fee276"/><path d="m512 497c0 8.28125-6.71875 15-15 15h-482c-8.289062 0-15-6.71875-15-15s6.710938-15 15-15h482c8.28125 0 15 6.71875 15 15zm0 0" fill="#00db7e"/><path d="m512 497c0 8.28125-6.71875 15-15 15h-336.21875v-30h336.21875c8.28125 0 15 6.71875 15 15zm0 0" fill="#00a863"/><path d="m321.828125 15c0 8.28125-6.707031 15-15 15h-291.828125c-8.289062 0-15-6.71875-15-15s6.710938-15 15-15h291.828125c8.292969 0 15 6.71875 15 15zm0 0" fill="#d9eeff"/><path d="m321.828125 15c0 8.28125-6.707031 15-15 15h-146.046875v-30h146.046875c8.292969 0 15 6.71875 15 15zm0 0" fill="#b0e3fc"/></svg>